<svg width="106" height="23" viewBox="0 0 106 23" fill="none" xmlns="http://www.w3.org/2000/svg">
<path d="M33.6928 19H35.4485V14.9091H37.8348C40.5337 14.9091 41.8689 13.2784 41.8689 11.1307C41.8689 8.98864 40.5451 7.36364 37.8405 7.36364H33.6928V19ZM35.4485 13.4205V8.86932H37.653C39.3916 8.86932 40.1019 9.8125 40.1019 11.1307C40.1019 12.4489 39.3916 13.4205 37.6757 13.4205H35.4485ZM46.8776 19.1761C49.3378 19.1761 50.9457 17.375 50.9457 14.6761C50.9457 11.9602 49.3378 10.1591 46.8776 10.1591C44.4173 10.1591 42.8094 11.9602 42.8094 14.6761C42.8094 17.375 44.4173 19.1761 46.8776 19.1761ZM46.8832 17.75C45.2753 17.75 44.5253 16.3466 44.5253 14.6705C44.5253 13 45.2753 11.5795 46.8832 11.5795C48.4798 11.5795 49.2298 13 49.2298 14.6705C49.2298 16.3466 48.4798 17.75 46.8832 17.75ZM55.6291 19.1705C57.22 19.1705 57.845 18.1989 58.1518 17.642H58.2939V19H59.953V7.36364H58.2541V11.6875H58.1518C57.845 11.1477 57.2655 10.1591 55.6405 10.1591C53.5325 10.1591 51.9814 11.8239 51.9814 14.6534C51.9814 17.4773 53.5098 19.1705 55.6291 19.1705ZM56.0041 17.7216C54.487 17.7216 53.6973 16.3864 53.6973 14.6364C53.6973 12.9034 54.47 11.6023 56.0041 11.6023C57.487 11.6023 58.2825 12.8125 58.2825 14.6364C58.2825 16.4716 57.47 17.7216 56.0041 17.7216ZM63.5965 13.8182C63.5965 12.4261 64.4772 11.6307 65.6874 11.6307C66.8579 11.6307 67.5568 12.375 67.5568 13.6534V19H69.2556V13.4489C69.2556 11.2727 68.0624 10.1591 66.267 10.1591C64.909 10.1591 64.0909 10.75 63.6818 11.6932H63.5738V7.36364H61.8977V19H63.5965V13.8182ZM74.7188 19.1761C77.179 19.1761 78.787 17.375 78.787 14.6761C78.787 11.9602 77.179 10.1591 74.7188 10.1591C72.2586 10.1591 70.6506 11.9602 70.6506 14.6761C70.6506 17.375 72.2586 19.1761 74.7188 19.1761ZM74.7245 17.75C73.1165 17.75 72.3665 16.3466 72.3665 14.6705C72.3665 13 73.1165 11.5795 74.7245 11.5795C76.3211 11.5795 77.0711 13 77.0711 14.6705C77.0711 16.3466 76.3211 17.75 74.7245 17.75ZM85.7317 15.3807C85.7374 16.8636 84.6351 17.5682 83.6806 17.5682C82.6294 17.5682 81.9022 16.8068 81.9022 15.6193V10.2727H80.2033V15.8239C80.2033 17.9886 81.3908 19.1136 83.0669 19.1136C84.3794 19.1136 85.2715 18.4205 85.6749 17.4886H85.7658V19H87.4362V10.2727H85.7317V15.3807ZM95.7787 12.4034C95.4264 11.0455 94.3639 10.1591 92.4776 10.1591C90.506 10.1591 89.1082 11.1989 89.1082 12.7443C89.1082 13.983 89.8582 14.8068 91.4946 15.1705L92.9719 15.4943C93.8128 15.6818 94.2048 16.0568 94.2048 16.6023C94.2048 17.2784 93.4832 17.8068 92.3696 17.8068C91.3526 17.8068 90.6991 17.3693 90.4946 16.5114L88.8526 16.7614C89.1366 18.3068 90.4207 19.1761 92.381 19.1761C94.4889 19.1761 95.9491 18.0568 95.9491 16.4773C95.9491 15.2443 95.1651 14.483 93.5628 14.1136L92.1764 13.7955C91.2162 13.5682 90.8014 13.2443 90.8071 12.6534C90.8014 11.983 91.5287 11.5057 92.4946 11.5057C93.5514 11.5057 94.0401 12.0909 94.2389 12.6761L95.7787 12.4034ZM101.098 19.1761C103.002 19.1761 104.348 18.2386 104.735 16.8182L103.127 16.5284C102.82 17.3523 102.081 17.7727 101.115 17.7727C99.6609 17.7727 98.6836 16.8295 98.6382 15.1477H104.843V14.5455C104.843 11.392 102.956 10.1591 100.979 10.1591C98.5473 10.1591 96.945 12.0114 96.945 14.6932C96.945 17.4034 98.5245 19.1761 101.098 19.1761ZM98.6439 13.875C98.712 12.6364 99.6098 11.5625 100.99 11.5625C102.309 11.5625 103.172 12.5398 103.178 13.875H98.6439Z" fill="black"/>
<g clip-path="url(#clip0)">
<path d="M4.75391 10.3516C6.93411 11.5974 12.4242 13.3416 16.9431 10.3516" stroke="black" stroke-width="1.3"/>
<path d="M0.597656 23.0012V8.85769C0.597656 7.94338 1.04736 7.08358 1.80894 6.54182L9.2414 1.25444C10.2893 0.508936 11.7168 0.508937 12.7647 1.25444L20.1972 6.54182C20.9588 7.08358 21.4085 7.94338 21.4085 8.85769V23.0012" stroke="black" stroke-width="1.3"/>
</g>
<defs>
<clipPath id="clip0">
<rect width="22" height="23" fill="white"/>
</clipPath>
</defs>
</svg>
