<svg width="60" height="60" viewBox="0 0 60 60" fill="none" xmlns="http://www.w3.org/2000/svg">
<g clip-path="url(#clip0)">
<path d="M34.6457 33.2903C34.6457 37.9279 31.5605 41.3482 28.1335 41.3482C24.7066 41.3482 21.6213 37.9279 21.6213 33.2903C21.6213 28.6528 24.7066 25.2324 28.1335 25.2324C31.5605 25.2324 34.6457 28.6528 34.6457 33.2903Z" stroke="white" stroke-width="1.75781"/>
<path d="M24.847 15.52C25.5977 18.0627 25.8437 20.4426 25.6707 22.2142C25.5841 23.1028 25.3974 23.7814 25.1614 24.2413C24.9275 24.6971 24.6935 24.854 24.5269 24.9044C24.3603 24.9548 24.0796 24.9536 23.637 24.7025C23.1905 24.4491 22.6666 23.9854 22.1125 23.2907C21.0078 21.9057 19.9236 19.7795 19.1729 17.2367C18.4223 14.694 18.1763 12.3141 18.3492 10.5425C18.4359 9.6539 18.6226 8.97529 18.8586 8.51538C19.0925 8.05955 19.3264 7.90269 19.4931 7.85228C19.6597 7.80187 19.9403 7.80302 20.3829 8.05417C20.8295 8.30756 21.3533 8.7712 21.9075 9.46594C23.0122 10.8509 24.0964 12.9772 24.847 15.52Z" stroke="white" stroke-width="1.75781"/>
<path d="M39.5755 19.4763C38.354 21.8245 36.8846 23.6987 35.5365 24.8417C34.8603 25.415 34.2578 25.7675 33.7713 25.9288C33.2892 26.0887 33.0135 26.035 32.8597 25.9529C32.7058 25.8709 32.5062 25.6712 32.3636 25.1783C32.2198 24.6809 32.1661 23.9785 32.2505 23.0897C32.4188 21.3177 33.1142 19.0308 34.3357 16.6825C35.5573 14.3344 37.0266 12.4601 38.3747 11.3172C39.051 10.7439 39.6534 10.3914 40.1399 10.2301C40.6221 10.0702 40.8977 10.1239 41.0515 10.206C41.2054 10.288 41.4051 10.4876 41.5476 10.9806C41.6915 11.478 41.7452 12.1804 41.6607 13.0692C41.4924 14.8412 40.7971 17.1281 39.5755 19.4763Z" stroke="white" stroke-width="1.75781"/>
<path d="M39.3443 49.4918C37.9642 52.1448 33.8305 53.1718 29.8331 51.0405C25.8357 48.9091 24.3337 44.8773 25.7139 42.2243C27.094 39.5713 31.2278 38.5442 35.2252 40.6756C39.2226 42.8069 40.7245 46.8388 39.3443 49.4918Z" stroke="white" stroke-width="1.75781"/>
</g>
<defs>
<clipPath id="clip0">
<rect width="25.83" height="46.77" fill="white" transform="translate(17.0699 6.63086)"/>
</clipPath>
</defs>
</svg>
