<svg width="150" height="43" viewBox="0 0 150 43" fill="none" xmlns="http://www.w3.org/2000/svg">
<path d="M37.1515 31.0117H40.5614V24.6515H44.1644C48.5118 24.6515 50.8463 22.0412 50.8463 18.4199C50.8463 14.8261 48.5393 12.1883 44.2103 12.1883H37.1515V31.0117ZM40.5614 21.8482V15.0375H43.6864C46.2416 15.0375 47.3721 16.4162 47.3721 18.4199C47.3721 20.4235 46.2416 21.8482 43.7048 21.8482H40.5614ZM58.064 31.2875C62.2 31.2875 64.8287 28.3739 64.8287 24.0081C64.8287 19.6331 62.2 16.7103 58.064 16.7103C53.928 16.7103 51.2994 19.6331 51.2994 24.0081C51.2994 28.3739 53.928 31.2875 58.064 31.2875ZM58.0824 28.622C55.7938 28.622 54.6725 26.5816 54.6725 23.9989C54.6725 21.4162 55.7938 19.3482 58.0824 19.3482C60.3342 19.3482 61.4556 21.4162 61.4556 23.9989C61.4556 26.5816 60.3342 28.622 58.0824 28.622ZM71.3387 31.2599C73.7651 31.2599 74.8589 29.8169 75.3828 28.7875H75.585V31.0117H78.857V12.1883H75.5207V19.2287H75.3828C74.8773 18.2085 73.8387 16.7103 71.3479 16.7103C68.085 16.7103 65.5207 19.2654 65.5207 23.9713C65.5207 28.622 68.0115 31.2599 71.3387 31.2599ZM72.267 28.5301C70.0703 28.5301 68.9122 26.6 68.9122 23.9529C68.9122 21.3243 70.0519 19.4401 72.267 19.4401C74.4085 19.4401 75.585 21.214 75.585 23.9529C75.585 26.6919 74.3901 28.5301 72.267 28.5301ZM84.1768 22.7397C84.1768 20.6993 85.4452 19.5228 87.2282 19.5228C88.9745 19.5228 90.004 20.6349 90.004 22.5375V31.0117H93.3311V22.0228C93.3311 18.6129 91.401 16.7103 88.469 16.7103C86.2999 16.7103 84.9213 17.6938 84.2687 19.293H84.1032V12.1883H80.8496V31.0117H84.1768V22.7397ZM101.328 31.2875C105.464 31.2875 108.092 28.3739 108.092 24.0081C108.092 19.6331 105.464 16.7103 101.328 16.7103C97.1918 16.7103 94.5631 19.6331 94.5631 24.0081C94.5631 28.3739 97.1918 31.2875 101.328 31.2875ZM101.346 28.622C99.0576 28.622 97.9363 26.5816 97.9363 23.9989C97.9363 21.4162 99.0576 19.3482 101.346 19.3482C103.598 19.3482 104.719 21.4162 104.719 23.9989C104.719 26.5816 103.598 28.622 101.346 28.622ZM118.362 25.0742C118.362 27.225 116.827 28.2911 115.356 28.2911C113.757 28.2911 112.691 27.1606 112.691 25.3684V16.8941H109.364V25.8831C109.364 29.2746 111.294 31.1955 114.069 31.1955C116.183 31.1955 117.672 30.0834 118.316 28.5025H118.463V31.0117H121.689V16.8941H118.362V25.0742ZM134.715 20.6257C134.256 18.236 132.344 16.7103 129.035 16.7103C125.634 16.7103 123.318 18.3831 123.328 20.9934C123.318 23.0522 124.587 24.4125 127.298 24.9731L129.706 25.4787C131.002 25.7636 131.609 26.2875 131.609 27.0871C131.609 28.0522 130.561 28.7783 128.98 28.7783C127.454 28.7783 126.462 28.1165 126.177 26.8481L122.932 27.1606C123.346 29.7525 125.524 31.2875 128.989 31.2875C132.519 31.2875 135.009 29.4584 135.019 26.7838C135.009 24.7709 133.713 23.5393 131.048 22.9603L128.64 22.4456C127.206 22.1239 126.636 21.6276 126.646 20.8096C126.636 19.8537 127.693 19.1919 129.081 19.1919C130.616 19.1919 131.425 20.0283 131.682 20.9566L134.715 20.6257ZM142.459 31.2875C145.75 31.2875 148.011 29.679 148.599 27.225L145.492 26.8757C145.042 28.0706 143.939 28.6956 142.505 28.6956C140.354 28.6956 138.93 27.2801 138.902 24.8628H148.737V23.8426C148.737 18.8886 145.759 16.7103 142.285 16.7103C138.24 16.7103 135.603 19.679 135.603 24.0356C135.603 28.4658 138.204 31.2875 142.459 31.2875ZM138.911 22.6202C139.013 20.8188 140.345 19.3022 142.331 19.3022C144.242 19.3022 145.529 20.6993 145.547 22.6202H138.911Z" fill="#101010"/>
<g clip-path="url(#clip0)">
<path d="M15.73 24.5724C15.73 28.8192 12.9699 31.9515 9.90403 31.9515C6.83823 31.9515 4.07812 28.8192 4.07812 24.5724C4.07812 20.3255 6.83823 17.1934 9.90403 17.1934C12.9699 17.1934 15.73 20.3255 15.73 24.5724Z" stroke="#101010" stroke-width="2.05881"/>
<path d="M6.9658 8.29759C7.63733 10.6262 7.85743 12.8055 7.70271 14.4279C7.62516 15.2417 7.45816 15.863 7.24707 16.2843C7.03778 16.7016 6.82844 16.8454 6.67942 16.8914C6.53035 16.9376 6.27925 16.9365 5.88327 16.7065C5.48381 16.4745 5.01515 16.0499 4.5194 15.4137C3.53111 14.1454 2.56117 12.1983 1.88964 9.86974C1.2181 7.54117 0.998025 5.3618 1.15269 3.73948C1.23027 2.9257 1.39726 2.30427 1.6084 1.8831C1.81764 1.46567 2.02697 1.32203 2.17604 1.27586C2.3251 1.2297 2.57615 1.23076 2.97212 1.46074C3.37163 1.69278 3.84028 2.11737 4.33602 2.75358C5.32432 4.02191 6.29427 5.96903 6.9658 8.29759Z" stroke="#101010" stroke-width="2.05881"/>
<path d="M20.1417 11.9211C19.049 14.0715 17.7345 15.7878 16.5284 16.8345C15.9235 17.3596 15.3844 17.6823 14.9493 17.8301C14.5179 17.9765 14.2714 17.9273 14.1337 17.8522C13.996 17.7769 13.8174 17.5941 13.6899 17.1428C13.5612 16.6872 13.5132 16.044 13.5887 15.23C13.7393 13.6073 14.3614 11.5131 15.4542 9.36269C16.547 7.21236 17.8616 5.49599 19.0675 4.44934C19.6726 3.92433 20.2115 3.60153 20.6466 3.4538C21.078 3.30739 21.3247 3.35659 21.4623 3.43172C21.5999 3.50684 21.7786 3.68967 21.906 4.14113C22.0348 4.59662 22.0828 5.23981 22.0072 6.05378C21.8568 7.67651 21.2346 9.77076 20.1417 11.9211Z" stroke="#101010" stroke-width="2.05881"/>
<path d="M19.9372 39.4084C18.7026 41.838 15.0045 42.7784 11.4284 40.8266C7.85217 38.8748 6.50853 35.1827 7.74324 32.7531C8.97795 30.3235 12.676 29.3831 16.2521 31.3349C19.8284 33.2867 21.172 36.9788 19.9372 39.4084Z" stroke="#101010" stroke-width="2.05881"/>
</g>
<defs>
<clipPath id="clip0">
<rect width="23.1231" height="42.8571" fill="white" transform="translate(0 0.142578)"/>
</clipPath>
</defs>
</svg>
