<svg width="34" height="60" viewBox="0 0 34 60" fill="none" xmlns="http://www.w3.org/2000/svg">
<path d="M22.5475 34.2025C22.5475 40.1519 18.5896 44.5398 14.1931 44.5398C9.79682 44.5398 5.83887 40.1519 5.83887 34.2025C5.83887 28.2531 9.79682 23.8652 14.1931 23.8652C18.5896 23.8652 22.5475 28.2531 22.5475 34.2025Z" stroke="black" stroke-width="2.25505"/>
<path d="M9.97689 11.4053C10.9399 14.6674 11.2555 17.7204 11.0336 19.9931C10.9224 21.1332 10.6829 22.0036 10.3802 22.5937C10.0801 23.1784 9.77991 23.3797 9.56623 23.4444C9.35245 23.509 8.99238 23.5075 8.42457 23.1854C7.85174 22.8603 7.17968 22.2655 6.46879 21.3742C5.05159 19.5974 3.66071 16.8698 2.69773 13.6077C1.73476 10.3457 1.41917 7.29259 1.64096 5.01992C1.75221 3.8799 1.99167 3.00933 2.29443 2.41932C2.5945 1.83455 2.89467 1.63332 3.10843 1.56865C3.32218 1.50398 3.68219 1.50546 4.25 1.82765C4.82289 2.15271 5.49493 2.74751 6.20583 3.63877C7.62302 5.41556 9.01392 8.14325 9.97689 11.4053Z" stroke="black" stroke-width="2.25505"/>
<path d="M28.8717 16.4803C27.3046 19.4928 25.4196 21.8971 23.6902 23.3634C22.8226 24.099 22.0498 24.5512 21.4257 24.7581C20.8071 24.9632 20.4535 24.8943 20.2562 24.789C20.0587 24.6838 19.8026 24.4276 19.6198 23.7953C19.4352 23.1572 19.3663 22.2561 19.4747 21.1158C19.6906 18.8426 20.5826 15.9088 22.1497 12.8963C23.7168 9.88394 25.6018 7.47949 27.3313 6.01326C28.1988 5.27776 28.9717 4.82556 29.5957 4.61861C30.2143 4.4135 30.5679 4.48243 30.7653 4.58768C30.9627 4.69292 31.2188 4.94904 31.4017 5.58149C31.5862 6.21957 31.6551 7.1206 31.5468 8.26089C31.3308 10.5342 30.4388 13.468 28.8717 16.4803Z" stroke="black" stroke-width="2.25505"/>
<path d="M28.5751 54.9857C26.8045 58.3892 21.5016 59.7067 16.3734 56.9725C11.2452 54.2382 9.31837 49.0659 11.0889 45.6624C12.8595 42.2589 18.1625 40.9413 23.2907 43.6756C28.4188 46.4098 30.3456 51.5822 28.5751 54.9857Z" stroke="black" stroke-width="2.25505"/>
</svg>
