<svg width="25" height="45" viewBox="0 0 25 45" fill="none" xmlns="http://www.w3.org/2000/svg">
<path d="M17.0111 25.6514C17.0111 30.1134 14.0251 33.4043 10.7082 33.4043C7.39136 33.4043 4.40527 30.1134 4.40527 25.6514C4.40527 21.1894 7.39136 17.8984 10.7082 17.8984C14.0251 17.8984 17.0111 21.1894 17.0111 25.6514Z" stroke="black" stroke-width="2.25505"/>
<path d="M7.52716 8.55301C8.25368 10.9996 8.49179 13.2894 8.32441 14.9939C8.24051 15.8489 8.05983 16.5018 7.83145 16.9443C7.60504 17.3828 7.37855 17.5338 7.21734 17.5823C7.05605 17.6308 6.7844 17.6297 6.35601 17.3881C5.92384 17.1443 5.4168 16.6981 4.88046 16.0297C3.81126 14.6971 2.7619 12.6514 2.03539 10.2048C1.30887 7.75826 1.07077 5.46847 1.2381 3.76396C1.32203 2.90895 1.5027 2.25602 1.73111 1.81351C1.9575 1.37494 2.18397 1.22402 2.34524 1.17551C2.5065 1.12701 2.77811 1.12812 3.2065 1.36976C3.63872 1.61356 4.14574 2.05966 4.68208 2.7281C5.75128 4.06069 6.80064 6.10646 7.52716 8.55301Z" stroke="black" stroke-width="2.25505"/>
<path d="M21.7823 12.3607C20.6 14.6201 19.1779 16.4234 17.8731 17.5231C17.2186 18.0747 16.6355 18.4139 16.1647 18.5691C15.698 18.7229 15.4312 18.6712 15.2823 18.5923C15.1334 18.5133 14.9401 18.3212 14.8022 17.8469C14.663 17.3684 14.611 16.6926 14.6927 15.8374C14.8556 14.1324 15.5286 11.9321 16.7109 9.67272C17.8932 7.41344 19.3154 5.61011 20.6201 4.51044C21.2747 3.95881 21.8578 3.61966 22.3286 3.46444C22.7953 3.31061 23.062 3.36231 23.2109 3.44125C23.3599 3.52018 23.5531 3.71227 23.6911 4.1866C23.8303 4.66516 23.8823 5.34094 23.8005 6.19616C23.6376 7.9011 22.9646 10.1015 21.7823 12.3607Z" stroke="black" stroke-width="2.25505"/>
<path d="M21.5586 41.2398C20.2228 43.7924 16.222 44.7805 12.353 42.7299C8.48399 40.6792 7.03033 36.7999 8.36613 34.2473C9.70193 31.6947 13.7028 30.7065 17.5718 32.7572C21.4407 34.8079 22.8944 38.6871 21.5586 41.2398Z" stroke="black" stroke-width="2.25505"/>
</svg>
