<svg width="30" height="50" viewBox="0 0 30 50" fill="none" xmlns="http://www.w3.org/2000/svg">
<path d="M19.9804 28.4995C19.9804 33.4541 16.4744 37.1084 12.58 37.1084C8.68569 37.1084 5.17969 33.4541 5.17969 28.4995C5.17969 23.5448 8.68569 19.8906 12.58 19.8906C16.4744 19.8906 19.9804 23.5448 19.9804 28.4995Z" stroke="#101010" stroke-width="2.125"/>
<path d="M8.85029 9.51288C9.7033 12.2295 9.98287 14.7722 9.78635 16.6649C9.68784 17.6143 9.47571 18.3392 9.20757 18.8307C8.94172 19.3176 8.67581 19.4853 8.48652 19.539C8.29716 19.5929 7.9782 19.5916 7.47522 19.3233C6.9678 19.0526 6.37249 18.5573 5.74277 17.815C4.4874 16.3353 3.25534 14.0637 2.40233 11.3471C1.54932 8.63039 1.26977 6.08779 1.46623 4.19508C1.56478 3.24568 1.7769 2.52067 2.04509 2.0293C2.31088 1.54231 2.57678 1.37472 2.76614 1.32086C2.95548 1.267 3.27437 1.26824 3.77735 1.53655C4.28482 1.80727 4.88012 2.30262 5.50984 3.04486C6.76521 4.52459 7.99728 6.79622 8.85029 9.51288Z" stroke="#101010" stroke-width="2.125"/>
<path d="M25.5845 13.7406C24.1965 16.2494 22.5267 18.2518 20.9947 19.473C20.2263 20.0855 19.5415 20.4621 18.9888 20.6345C18.4408 20.8052 18.1277 20.7478 17.9529 20.6602C17.7779 20.5724 17.551 20.3591 17.3891 19.8326C17.2256 19.3011 17.1646 18.5507 17.2605 17.601C17.4518 15.7079 18.242 13.2646 19.6302 10.7558C21.0183 8.2471 22.6881 6.24467 24.22 5.02358C24.9885 4.41106 25.6731 4.03447 26.2258 3.86212C26.7738 3.6913 27.0871 3.7487 27.2619 3.83636C27.4368 3.924 27.6636 4.1373 27.8255 4.66401C27.9892 5.19541 28.05 5.94579 27.9541 6.89542C27.763 8.78861 26.9726 11.2319 25.5845 13.7406Z" stroke="#101010" stroke-width="2.125"/>
<path d="M25.3205 45.8078C23.7523 48.6423 19.0548 49.7396 14.5122 47.4625C9.96956 45.1853 8.26281 40.8779 9.83119 38.0434C11.3996 35.2089 16.0971 34.1116 20.6396 36.3887C25.1823 38.6658 26.889 42.9733 25.3205 45.8078Z" stroke="#101010" stroke-width="2.125"/>
</svg>
