<svg width="80" height="80" viewBox="0 0 80 80" fill="none" xmlns="http://www.w3.org/2000/svg">
<path d="M46.1944 44.3884C46.1944 50.5718 42.0808 55.1323 37.5115 55.1323C32.9422 55.1323 28.8286 50.5718 28.8286 44.3884C28.8286 38.205 32.9422 33.6445 37.5115 33.6445C42.0808 33.6445 46.1944 38.205 46.1944 44.3884Z" stroke="white" stroke-width="2.34375"/>
<path d="M33.1295 20.692C34.1303 24.0824 34.4583 27.2555 34.2277 29.6176C34.1122 30.8024 33.8633 31.7072 33.5486 32.3205C33.2367 32.9282 32.9247 33.1374 32.7026 33.2046C32.4805 33.2718 32.1062 33.2702 31.5161 32.9354C30.9207 32.5976 30.2222 31.9793 29.4834 31.053C28.0104 29.2063 26.5648 26.3714 25.564 22.981C24.5631 19.5906 24.2351 16.4175 24.4656 14.0554C24.5813 12.8706 24.8302 11.9657 25.1448 11.3525C25.4567 10.7448 25.7687 10.5356 25.9908 10.4684C26.213 10.4012 26.5872 10.4027 27.1773 10.7376C27.7727 11.0754 28.4712 11.6936 29.2101 12.62C30.683 14.4666 32.1286 17.3016 33.1295 20.692Z" stroke="white" stroke-width="2.34375"/>
<path d="M52.7675 25.9697C51.1388 29.1006 49.1796 31.5996 47.3822 33.1235C46.4805 33.888 45.6772 34.358 45.0286 34.5731C44.3857 34.7862 44.0182 34.7146 43.8131 34.6052C43.6079 34.4958 43.3417 34.2296 43.1517 33.5723C42.9599 32.9091 42.8883 31.9727 43.0009 30.7875C43.2253 28.4248 44.1524 25.3756 45.7811 22.2447C47.4099 19.1138 49.369 16.6148 51.1665 15.0909C52.0682 14.3265 52.8714 13.8565 53.52 13.6414C54.163 13.4282 54.5304 13.4999 54.7355 13.6092C54.9408 13.7186 55.2069 13.9848 55.397 14.6421C55.5888 15.3053 55.6604 16.2418 55.5478 17.4269C55.3234 19.7896 54.3962 22.8388 52.7675 25.9697Z" stroke="white" stroke-width="2.34375"/>
<path d="M52.4593 65.9904C50.6191 69.5277 45.1075 70.8971 39.7777 68.0553C34.4477 65.2135 32.4452 59.8377 34.2854 56.3004C36.1256 52.763 41.6372 51.3936 46.967 54.2354C52.2969 57.0772 54.2995 62.453 52.4593 65.9904Z" stroke="white" stroke-width="2.34375"/>
</svg>
