<svg width="150" height="31" viewBox="0 0 150 31" fill="none" xmlns="http://www.w3.org/2000/svg">
<path d="M42.0392 25H44.6727V18.8636H48.2522C52.3005 18.8636 54.3034 16.4176 54.3034 13.196C54.3034 9.98295 52.3176 7.54545 48.2608 7.54545H42.0392V25ZM44.6727 16.6307V9.80398H47.9795C50.5875 9.80398 51.6528 11.2188 51.6528 13.196C51.6528 15.1733 50.5875 16.6307 48.0136 16.6307H44.6727ZM61.8163 25.2642C65.5067 25.2642 67.9186 22.5625 67.9186 18.5142C67.9186 14.4403 65.5067 11.7386 61.8163 11.7386C58.126 11.7386 55.7141 14.4403 55.7141 18.5142C55.7141 22.5625 58.126 25.2642 61.8163 25.2642ZM61.8249 23.125C59.4129 23.125 58.2879 21.0199 58.2879 18.5057C58.2879 16 59.4129 13.8693 61.8249 13.8693C64.2197 13.8693 65.3447 16 65.3447 18.5057C65.3447 21.0199 64.2197 23.125 61.8249 23.125ZM74.9436 25.2557C77.33 25.2557 78.2675 23.7983 78.7277 22.9631H78.9408V25H81.4294V7.54545H78.8811V14.0312H78.7277C78.2675 13.2216 77.3982 11.7386 74.9607 11.7386C71.7987 11.7386 69.472 14.2358 69.472 18.4801C69.472 22.7159 71.7647 25.2557 74.9436 25.2557ZM75.5061 23.0824C73.2306 23.0824 72.0459 21.0795 72.0459 18.4545C72.0459 15.8551 73.205 13.9034 75.5061 13.9034C77.7306 13.9034 78.9237 15.7188 78.9237 18.4545C78.9237 21.2074 77.705 23.0824 75.5061 23.0824ZM86.8948 17.2273C86.8948 15.1392 88.2158 13.946 90.0312 13.946C91.7868 13.946 92.8351 15.0625 92.8351 16.9801V25H95.3834V16.6733C95.3834 13.4091 93.5937 11.7386 90.9005 11.7386C88.8636 11.7386 87.6363 12.625 87.0226 14.0398H86.8607V7.54545H84.3465V25H86.8948V17.2273ZM103.578 25.2642C107.269 25.2642 109.68 22.5625 109.68 18.5142C109.68 14.4403 107.269 11.7386 103.578 11.7386C99.8879 11.7386 97.4759 14.4403 97.4759 18.5142C97.4759 22.5625 99.8879 25.2642 103.578 25.2642ZM103.587 23.125C101.175 23.125 100.05 21.0199 100.05 18.5057C100.05 16 101.175 13.8693 103.587 13.8693C105.982 13.8693 107.107 16 107.107 18.5057C107.107 21.0199 105.982 23.125 103.587 23.125ZM120.098 19.571C120.106 21.7955 118.453 22.8523 117.021 22.8523C115.444 22.8523 114.353 21.7102 114.353 19.929V11.9091H111.805V20.2358C111.805 23.483 113.586 25.1705 116.1 25.1705C118.069 25.1705 119.407 24.1307 120.012 22.733H120.149V25H122.654V11.9091H120.098V19.571ZM135.168 15.1051C134.64 13.0682 133.046 11.7386 130.216 11.7386C127.259 11.7386 125.162 13.2983 125.162 15.6165C125.162 17.4744 126.287 18.7102 128.742 19.2557L130.958 19.7415C132.219 20.0227 132.807 20.5852 132.807 21.4034C132.807 22.4176 131.725 23.2102 130.054 23.2102C128.529 23.2102 127.549 22.554 127.242 21.267L124.779 21.642C125.205 23.9602 127.131 25.2642 130.071 25.2642C133.233 25.2642 135.424 23.5852 135.424 21.2159C135.424 19.3665 134.248 18.2244 131.844 17.6705L129.765 17.1932C128.324 16.8523 127.702 16.3665 127.711 15.4801C127.702 14.4744 128.793 13.7585 130.242 13.7585C131.827 13.7585 132.56 14.6364 132.858 15.5142L135.168 15.1051ZM143.148 25.2642C146.003 25.2642 148.023 23.858 148.602 21.7273L146.19 21.2926C145.73 22.5284 144.622 23.1591 143.173 23.1591C140.991 23.1591 139.525 21.7443 139.457 19.2216H148.764V18.3182C148.764 13.5881 145.935 11.7386 142.969 11.7386C139.321 11.7386 136.917 14.517 136.917 18.5398C136.917 22.6051 139.287 25.2642 143.148 25.2642ZM139.466 17.3125C139.568 15.4545 140.915 13.8438 142.986 13.8438C144.963 13.8438 146.258 15.3097 146.267 17.3125H139.466Z" fill="black"/>
<g clip-path="url(#clip0)">
<path d="M6.48438 13.9492C9.45737 15.6284 16.9438 17.9792 23.106 13.9492" stroke="black" stroke-width="1.5"/>
<path d="M0.8125 31.002V11.939C0.8125 10.7066 1.42573 9.54778 2.46425 8.81757L12.5994 1.69111C14.0284 0.686297 15.975 0.686298 17.404 1.69111L27.5391 8.81757C28.5777 9.54778 29.1909 10.7066 29.1909 11.939V31.002" stroke="black" stroke-width="1.5"/>
</g>
<defs>
<clipPath id="clip0">
<rect width="30" height="31" fill="white"/>
</clipPath>
</defs>
</svg>
