<svg width="219" height="48" viewBox="0 0 219 48" fill="none" xmlns="http://www.w3.org/2000/svg">
<path d="M57.0588 39H61.009V29.7955H66.3784C72.4508 29.7955 75.4551 26.1264 75.4551 21.294C75.4551 16.4744 72.4764 12.8182 66.3911 12.8182H57.0588V39ZM61.009 26.446V16.206H65.9693C69.8812 16.206 71.4792 18.3281 71.4792 21.294C71.4792 24.2599 69.8812 26.446 66.0204 26.446H61.009ZM86.7245 39.3963C92.26 39.3963 95.8779 35.3438 95.8779 29.2713C95.8779 23.1605 92.26 19.108 86.7245 19.108C81.189 19.108 77.5711 23.1605 77.5711 29.2713C77.5711 35.3438 81.189 39.3963 86.7245 39.3963ZM86.7373 36.1875C83.1194 36.1875 81.4319 33.0298 81.4319 29.2585C81.4319 25.5 83.1194 22.304 86.7373 22.304C90.3296 22.304 92.0171 25.5 92.0171 29.2585C92.0171 33.0298 90.3296 36.1875 86.7373 36.1875ZM106.415 39.3835C109.995 39.3835 111.401 37.1974 112.092 35.9446H112.411V39H116.144V12.8182H112.322V22.5469H112.092C111.401 21.3324 110.097 19.108 106.441 19.108C101.698 19.108 98.2081 22.8537 98.2081 29.2202C98.2081 35.5739 101.647 39.3835 106.415 39.3835ZM107.259 36.1236C103.846 36.1236 102.069 33.1193 102.069 29.1818C102.069 25.2827 103.807 22.3551 107.259 22.3551C110.596 22.3551 112.386 25.0781 112.386 29.1818C112.386 33.3111 110.557 36.1236 107.259 36.1236ZM124.342 27.3409C124.342 24.2088 126.324 22.419 129.047 22.419C131.68 22.419 133.253 24.0938 133.253 26.9702V39H137.075V26.5099C137.075 21.6136 134.39 19.108 130.351 19.108C127.295 19.108 125.454 20.4375 124.534 22.5597H124.291V12.8182H120.52V39H124.342V27.3409ZM149.367 39.3963C154.903 39.3963 158.521 35.3438 158.521 29.2713C158.521 23.1605 154.903 19.108 149.367 19.108C143.832 19.108 140.214 23.1605 140.214 29.2713C140.214 35.3438 143.832 39.3963 149.367 39.3963ZM149.38 36.1875C145.762 36.1875 144.075 33.0298 144.075 29.2585C144.075 25.5 145.762 22.304 149.38 22.304C152.972 22.304 154.66 25.5 154.66 29.2585C154.66 33.0298 152.972 36.1875 149.38 36.1875ZM174.146 30.8565C174.159 34.1932 171.679 35.7784 169.531 35.7784C167.166 35.7784 165.53 34.0653 165.53 31.3935V19.3636H161.707V31.8537C161.707 36.7244 164.379 39.2557 168.151 39.2557C171.104 39.2557 173.111 37.696 174.018 35.5994H174.223V39H177.982V19.3636H174.146V30.8565ZM196.752 24.1577C195.959 21.1023 193.569 19.108 189.324 19.108C184.888 19.108 181.744 21.4474 181.744 24.9247C181.744 27.7116 183.431 29.5653 187.113 30.3835L190.437 31.1122C192.329 31.5341 193.211 32.3778 193.211 33.6051C193.211 35.1264 191.587 36.3153 189.082 36.3153C186.793 36.3153 185.323 35.331 184.863 33.4006L181.168 33.9631C181.807 37.4403 184.697 39.3963 189.107 39.3963C193.85 39.3963 197.136 36.8778 197.136 33.3239C197.136 30.5497 195.371 28.8366 191.766 28.0057L188.647 27.2898C186.486 26.7784 185.553 26.0497 185.566 24.7202C185.553 23.2116 187.19 22.1378 189.363 22.1378C191.741 22.1378 192.84 23.4545 193.288 24.7713L196.752 24.1577ZM208.721 39.3963C213.004 39.3963 216.034 37.2869 216.903 34.0909L213.285 33.4389C212.595 35.2926 210.933 36.2386 208.76 36.2386C205.487 36.2386 203.288 34.1165 203.186 30.3324H217.146V28.9773C217.146 21.8821 212.902 19.108 208.453 19.108C202.981 19.108 199.376 23.2756 199.376 29.3097C199.376 35.4077 202.93 39.3963 208.721 39.3963ZM203.199 27.4688C203.352 24.6818 205.372 22.2656 208.479 22.2656C211.444 22.2656 213.388 24.4645 213.4 27.4688H203.199Z" fill="black"/>
<g clip-path="url(#clip0)">
<path d="M9.51172 20.25C13.8721 22.6875 24.8523 26.1 33.8901 20.25" stroke="black" stroke-width="2"/>
<path d="M1.19141 45.0013V17.3292C1.19141 15.5404 2.09081 13.8582 3.61397 12.7982L18.4789 2.45332C20.5747 0.994725 23.4297 0.994727 25.5255 2.45332L40.3904 12.7982C41.9136 13.8582 42.813 15.5404 42.813 17.3292V45.0013" stroke="black" stroke-width="2"/>
</g>
<defs>
<clipPath id="clip0">
<rect width="44" height="45" fill="white"/>
</clipPath>
</defs>
</svg>
